<svg width="48" height="48" xmlns="http://www.w3.org/2000/svg">

 <g>
  <title>background</title>
  <rect fill="none" id="canvas_background" height="402" width="582" y="-1" x="-1"/>
 </g>
 <g>
  <title>Layer 1</title>
  <path id="svg_1" fill="#0086ff" d="m24,0c-13.254,0 -24,10.745 -24,24s10.746,24 24,24c13.256,0 24,-10.745 24,-24s-10.744,-24 -24,-24zm0,13.713c2.809,0 5.084,2.275 5.084,5.083c0,2.809 -2.275,5.084 -5.084,5.084c-2.807,0 -5.083,-2.275 -5.083,-5.084c0,-2.808 2.276,-5.083 5.083,-5.083zm8.582,23.977c-2.491,1.537 -5.416,2.439 -8.559,2.439c-3.161,0 -6.104,-0.913 -8.604,-2.467l0,-10.336c0,-0.904 0.733,-1.638 1.638,-1.638l13.888,0c0.904,0 1.638,0.733 1.638,1.638l0,10.364l-0.001,0z"/>
 </g>
</svg>