<svg width="135" height="135" xmlns="http://www.w3.org/2000/svg">

 <g>
  <title>background</title>
  <rect fill="none" id="canvas_background" height="402" width="582" y="-1" x="-1"/>
 </g>
 <g>
  <title>Layer 1</title>
  <path fill="#d60909" id="svg_4" d="m97.973,12.122c-13.829,0 -25.968,7.763 -30.237,19.287c-0.061,0.169 -0.138,0.321 -0.236,0.465c-0.094,-0.144 -0.176,-0.296 -0.237,-0.465c-4.263,-11.524 -16.405,-19.287 -30.243,-19.287c-17.495,0 -31.746,12.548 -31.746,27.957c0,5.605 1.857,11.021 5.409,15.633c0.033,0.031 0.056,0.082 0.056,0.082c0.113,0.129 0.209,0.211 0.295,0.291l56.467,66.793l56.463,-66.793c0.092,-0.08 0.188,-0.162 0.304,-0.291c0,0 0.017,-0.051 0.052,-0.082c3.556,-4.611 5.41,-10.027 5.41,-15.633c-0.002,-15.409 -14.253,-27.957 -31.757,-27.957z" class="st226"/>
  <path fill="#ff1a1a" id="svg_6" d="m67.262,31.409c-4.263,-11.524 -16.405,-19.287 -30.243,-19.287c-17.495,0 -31.746,12.548 -31.746,27.957c0,5.605 1.857,11.021 5.409,15.633c0.033,0.031 0.056,0.082 0.056,0.082c0.113,0.129 0.209,0.211 0.295,0.291l56.467,66.793l0,-91.004c-0.095,-0.144 -0.177,-0.296 -0.238,-0.465z" class="st141"/>
  <path fill="#33363a" id="svg_8" d="m67.499,124.378c-0.441,0 -0.86,-0.194 -1.146,-0.532l-56.406,-66.721c-0.119,-0.11 -0.221,-0.209 -0.336,-0.34c-0.051,-0.058 -0.097,-0.12 -0.138,-0.185c-3.729,-4.853 -5.7,-10.565 -5.7,-16.521c0,-16.243 14.914,-29.457 33.246,-29.457c13.344,0 25.213,6.948 30.481,17.561c5.281,-10.617 17.144,-17.561 30.473,-17.561c18.337,0 33.255,13.214 33.255,29.457c0,5.949 -1.964,11.651 -5.68,16.494c-0.048,0.08 -0.104,0.155 -0.167,0.225c-0.129,0.143 -0.24,0.247 -0.344,0.34l-56.391,66.708c-0.287,0.338 -0.706,0.532 -1.147,0.532zm-55.589,-69.526c0.031,0.032 0.061,0.058 0.087,0.082c0.047,0.043 0.14,0.134 0.181,0.183l55.321,65.438l55.317,-65.438c0.049,-0.058 0.102,-0.112 0.16,-0.162c0.041,-0.036 0.077,-0.066 0.114,-0.102c0.014,-0.019 0.027,-0.037 0.041,-0.055l-0.002,-0.001c3.335,-4.325 5.098,-9.415 5.098,-14.717c0,-14.588 -13.572,-26.457 -30.255,-26.457c-13.188,0 -24.774,7.357 -28.831,18.308c-0.1,0.278 -0.234,0.542 -0.407,0.793c-0.284,0.412 -0.772,0.634 -1.254,0.65c-0.5,-0.006 -0.965,-0.261 -1.238,-0.68c-0.167,-0.256 -0.295,-0.508 -0.391,-0.772c-4.047,-10.943 -15.636,-18.3 -28.833,-18.3c-16.678,0 -30.246,11.869 -30.246,26.457c0,5.298 1.763,10.388 5.098,14.717l-0.001,0.001c0.013,0.018 0.027,0.037 0.041,0.055z" class="st205"/>
  <circle fill="#36c6ff" id="svg_11" r="21.931" cy="68.556" cx="67.499" class="st209"/>
  <path fill="#33363a" id="svg_19" d="m67.499,91.987c-12.92,0 -23.431,-10.511 -23.431,-23.432c0,-12.919 10.511,-23.43 23.431,-23.43s23.431,10.512 23.431,23.431c0,12.92 -10.511,23.431 -23.431,23.431zm0,-43.861c-11.266,0 -20.431,9.165 -20.431,20.43c0,11.266 9.165,20.432 20.431,20.432s20.431,-9.166 20.431,-20.432c0,-11.265 -9.165,-20.43 -20.431,-20.43z" class="st205"/>
  <path fill="#33363a" id="svg_32" d="m67.536,42.38c-0.829,0 -1.5,-0.671 -1.5,-1.5l0,-9.471c0,-0.829 0.671,-1.5 1.5,-1.5s1.5,0.671 1.5,1.5l0,9.471c0,0.828 -0.671,1.5 -1.5,1.5z" class="st205"/>
  <path fill="#33363a" id="svg_34" d="m67.536,121.833c-0.829,0 -1.5,-0.671 -1.5,-1.5l0,-9.47c0,-0.829 0.671,-1.5 1.5,-1.5s1.5,0.671 1.5,1.5l0,9.47c0,0.829 -0.671,1.5 -1.5,1.5z" class="st205"/>
  <path fill="#33363a" id="svg_36" d="m67.536,101.457c-0.829,0 -1.5,-0.671 -1.5,-1.5l0,-9.47c0,-0.829 0.671,-1.5 1.5,-1.5s1.5,0.671 1.5,1.5l0,9.47c0,0.829 -0.671,1.5 -1.5,1.5z" class="st205"/>
  <path fill="#33363a" id="svg_38" d="m67.536,48.246c-0.829,0 -1.5,-0.671 -1.5,-1.5l0,-1.409c0,-0.829 0.671,-1.5 1.5,-1.5s1.5,0.671 1.5,1.5l0,1.409c0,0.829 -0.671,1.5 -1.5,1.5z" class="st205"/>
  <path fill="#33363a" id="svg_40" d="m67.536,107.63c-0.829,0 -1.5,-0.671 -1.5,-1.5l0,-1.409c0,-0.829 0.671,-1.5 1.5,-1.5s1.5,0.671 1.5,1.5l0,1.409c0,0.828 -0.671,1.5 -1.5,1.5z" class="st205"/>
 </g>
</svg>