<?xml version="1.0" ?><svg id="Layer_1" style="enable-background:new 0 0 800 800;" version="1.1" viewBox="0 0 800 800" xml:space="preserve" xmlns="http://www.w3.org/2000/svg" xmlns:xlink="http://www.w3.org/1999/xlink"><style type="text/css">
	.st0{fill:#1900F1;}
	.st1{fill:#DF1D00;}
	.st2{fill:none;stroke:#000000;stroke-width:75;stroke-miterlimit:10;}
</style><path d="M-2480,100C-2480,100-2480,100-2480,100V75c0-13.8-11.2-25-25-25h-625c0-27.5-22.5-50-50-50h-50c-27.5,0-50,22.5-50,50v25  v25v650c0,27.5,22.5,50,50,50h50c27.5,0,50-22.5,50-50V491.9l586.3,157.1c3.3,0.9,12.3,1,13.7,1h25c13.8,0,25-11.2,25-25V100z   M-3130,414.3V125h575v443.3L-3130,414.3z"/><path d="M-1685,601h-25V149.9c0-0.9-0.1-1.8-0.2-2.7c1.2-11.2-5.3-22.2-16.3-26.2L-2050.4,3c-3.2-1.2-5.6-2-9.6-3  c-4,1-6.4,1.9-9.6,3l-324,117.9c-11.1,4-17.5,15-16.3,26.2c-0.1,0.9-0.2,1.8-0.2,2.8v451h-25c-13.8,0-25,11.2-25,25v25  c0,13.8,11.2,25,25,25h195v49.5c-11.4,2.3-20,12.4-20,24.5v25c0,13.8,11.2,25,25,25h355c13.8,0,25-11.2,25-25v-25  c0-13.8-11.2-25-25-25v-49h195c13.8,0,25-11.2,25-25v-25C-1660,612.2-1671.2,601-1685,601z M-2335,601V179.5l275-100.1l275,100.1  V601H-2335z"/><path d="M-1005,1421h-43.5l-156.1-582.5c-3.6-13.3-35.5-18.4-35.5-18.4s-31.9,5-35.5,18.4l-156.1,582.5h-43.4c-13.8,0-25,11.2-25,25  v25c0,13.8,11.2,25,25,25h125v49c-13.8,0-25,11.2-25,25v25c0,13.8,11.2,25,25,25h220c13.8,0,25-11.2,25-25v-25c0-13.8-11.2-25-25-25  v-49h125c13.8,0,25-11.2,25-25v-25C-980,1432.2-991.2,1421-1005,1421z M-1240,995.9l113.9,425.1h-227.8L-1240,995.9z"/><path d="M-2786,915.1c0-52.4-42.2-95.1-94-95.1s-94,42.7-94,95.1c0,33.8,17.5,63.5,43.9,80.4v147.8c0,12.8,4.7,24.5,12.5,33.4v417.9  c0,14,11.2,25.4,25.1,25.4h25.1c13.8,0,25.1-11.4,25.1-25.4v-417.9c7.8-8.9,12.5-20.7,12.5-33.4V995.5  C-2803.5,978.6-2786,948.9-2786,915.1z M-2880,972.1c-31.1,0-56.4-25.6-56.4-57.1s25.3-57.1,56.4-57.1s56.4,25.6,56.4,57.1  S-2848.9,972.1-2880,972.1z"/><g><path d="M-873.3,245.1c-20-47.4-48.7-90-85.3-126.5c-36.5-36.5-79.1-65.2-126.5-85.3C-1134.2,12.5-1186.3,2-1240,2   s-105.8,10.5-154.9,31.3c-47.4,20-90,48.7-126.5,85.3c-36.5,36.5-65.2,79.1-85.3,126.5c-20.8,49.1-31.3,101.2-31.3,154.9   s10.5,105.8,31.3,154.9c20,47.4,48.7,90,85.3,126.5c36.5,36.5,79.1,65.2,126.5,85.3c49.1,20.8,101.2,31.3,154.9,31.3   s105.8-10.5,154.9-31.3c47.4-20,90-48.7,126.5-85.3c36.5-36.5,65.2-79.1,85.3-126.5C-852.5,505.8-842,453.7-842,400   S-852.5,294.2-873.3,245.1z M-1240,723c-178.1,0-323-144.9-323-323s144.9-323,323-323s323,144.9,323,323S-1061.9,723-1240,723z"/><path d="M-1240,106.3c-78.5,0-152.2,30.6-207.7,86c-55.5,55.5-86,129.2-86,207.7s30.6,152.2,86,207.7c55.5,55.5,129.3,86,207.7,86   s152.2-30.6,207.7-86c55.5-55.5,86-129.2,86-207.7s-30.6-152.2-86-207.7C-1087.8,136.8-1161.5,106.3-1240,106.3z M-1240,656.3   c-141.3,0-256.3-115-256.3-256.3s115-256.3,256.3-256.3s256.3,115,256.3,256.3S-1098.7,656.3-1240,656.3z"/><circle cx="-1240" cy="400" r="75"/></g><g><rect height="100" transform="matrix(0.7071 -0.7071 0.7071 0.7071 -2118.7996 -1508.2346)" width="100" x="-2930" y="1753.5"/><rect height="100" transform="matrix(0.7071 -0.7071 0.7071 0.7071 -2242.5432 -1456.9783)" width="100" x="-2930" y="1928.5"/><path d="M-2642.5,2011.3v-45.6l70.2-70.2l-70.2-70.2V1700c0-34.5-28-62.5-62.5-62.5h-350c-34.5,0-62.5,28-62.5,62.5v125.3   l-70.2,70.2l70.2,70.2v45.6l-68.2,68.2l68.2,68.2v126.8c0,34.5,28,62.5,62.5,62.5h65v28c-13.8,0-25,11.2-25,25v25   c0,13.8,11.2,25,25,25h220c13.8,0,25-11.2,25-25v-25c0-13.8-11.2-25-25-25v-28h65c34.5,0,62.5-28,62.5-62.5v-126.8l68.2-68.2   L-2642.5,2011.3z M-2717.5,2262h-325v-549.5h325V2262z"/><rect height="100" transform="matrix(0.7071 -0.7071 0.7071 0.7071 -2366.2869 -1405.7219)" width="100" x="-2930" y="2103.5"/></g><path d="M-1723,1688.6h-262c-0.7-26.9-22.9-48.6-50-48.6h-50c-27,0-49.2,21.8-50,48.6h-262c-34.7,0-62.9,28.2-62.9,62.9v403  c0,34.7,28.2,62.9,62.9,62.9h262V2390c0,27.5,22.5,50,50,50h50c27.5,0,50-22.5,50-50v-172.6h262c34.7,0,62.9-28.2,62.9-62.9v-403  C-1660.1,1716.8-1688.3,1688.6-1723,1688.6z M-1735.9,2141.6h-648.2v-377.2h648.2V2141.6z"/><g><path d="M-1139,1975.8c-34.9,0-63.3,28.4-63.3,63.3s28.4,63.3,63.3,63.3s63.3-28.4,63.3-63.3S-1104.1,1975.8-1139,1975.8z"/><path d="M-1003,2039c0-43.5-20.5-82.3-52.3-107.2c-16.1-65-46.7-124.6-90-173.8c-32.5-36.9-70.4-65.9-112.7-86.2   c-43.9-21.1-90.6-31.8-138.8-31.8c-19.4,0-59.7,5.6-60.8,5.8c-11.2,2.9-19.4,13.1-19.4,25.2c0,10,5.7,18.7,14,23   c2,0.7,4.1,1.5,6.1,2.3c103.6,39.8,183.4,139.2,208.1,262.4c-16.5,22.5-26.2,50.2-26.2,80.2c0,0.3,0,0.7,0,1c0,0.3,0,0.7,0,1   c0,30,9.7,57.8,26.2,80.2c-24.8,123.2-104.6,222.6-208.1,262.4c-2,0.8-4.1,1.5-6.1,2.3c-8.3,4.3-14,13-14,23   c0,12.1,8.2,22.2,19.4,25.2c1.2,0.2,41.5,5.8,60.8,5.8c48.2,0,94.9-10.7,138.8-31.8c42.3-20.3,80.2-49.3,112.7-86.2   c43.3-49.1,73.9-108.8,90-173.8c31.8-24.9,52.3-63.7,52.3-107.2c0-0.3,0-0.7,0-1C-1003,2039.7-1003,2039.3-1003,2039z    M-1306.3,1758c-29.5-33.5-63.4-60.4-101-80.3c3.5-0.1,7-0.2,10.6-0.2c134.2,0,249.1,95.8,295.3,230.8c-11.9-3.4-24.5-5.3-37.6-5.3   c-29.2,0-56.2,9.2-78.3,24.8C-1233.7,1864.4-1263.9,1806.2-1306.3,1758z M-1396.8,2402.5c-3.5,0-7.1-0.1-10.6-0.2   c37.6-19.9,71.6-46.8,101-80.3c42.4-48.1,72.6-106.3,88.9-169.8c22.1,15.6,49.2,24.8,78.3,24.8c13,0,25.6-1.8,37.6-5.3   C-1147.6,2306.7-1262.6,2402.5-1396.8,2402.5z M-1038.3,2041c0,55.6-45.2,100.8-100.8,100.8s-100.8-45.2-100.8-100.8   c0-0.3,0-0.7,0-1c0-0.3,0-0.7,0-1c0-55.6,45.2-100.8,100.8-100.8s100.8,45.2,100.8,100.8c0,0.3,0,0.7,0,1   C-1038.3,2040.3-1038.3,2040.7-1038.3,2041z"/></g><g><path class="st0" d="M-69.5,225H-244v-75h40c6.6,0,12-5.4,12-12V12c0-6.6-5.4-12-12-12h-89.5h-253H-636c-6.6,0-12,5.4-12,12v126   c0,6.6,5.4,12,12,12h40v75h-174.5c-27.3,0-49.5,22.2-49.5,49.5v476c0,27.3,22.2,49.5,49.5,49.5h701c27.3,0,49.5-22.2,49.5-49.5   v-476C-20,247.2-42.2,225-69.5,225z M-521,150h202v106h-202V150z M-95,725h-650V300h152.6c7.3,18.2,25.1,31,45.9,31h253   c20.8,0,38.6-12.8,45.9-31H-95V725z"/><path class="st0" d="M-436.4,428h-13.5c-0.7,0-1.3,0.1-2,0.2c-2.5,0.3-4.9,1.5-6.8,3.4l-29.9,29.9l-29.9-29.9   c-1.9-1.9-4.3-3-6.8-3.4c-0.7-0.1-1.3-0.2-2-0.2h-13.5c-6.6,0-12,5.4-12,12v155c0,6.6,5.4,12,12,12h13.5c6.6,0,12-5.4,12-12V487.8   l17.7,17.7c2.5,2.5,5.8,3.6,9.1,3.5c3.3,0.2,6.6-1,9.1-3.5l17.7-17.7V595c0,6.6,5.4,12,12,12h13.5c6.6,0,12-5.4,12-12V440   C-424.4,433.4-429.8,428-436.4,428z"/><path class="st0" d="M-299.1,427h-67c-0.4,0-0.8,0-1.1,0.1c-0.4,0-0.7-0.1-1.1-0.1h-13.5c-6.6,0-12,5.4-12,12v155   c0,6.6,5.4,12,12,12h13.5c6.6,0,12-5.4,12-12v-59h57.3c6.6,0,12-5.4,12-12v-6v-7v-58v-2v-11C-287.1,432.4-292.5,427-299.1,427z    M-324.1,498h-32.3v-34h32.3V498z"/></g><g><path class="st1" d="M750.5,225H576v-75h40c6.6,0,12-5.4,12-12V12c0-6.6-5.4-12-12-12h-89.5h-253H184c-6.6,0-12,5.4-12,12v126   c0,6.6,5.4,12,12,12h40v75H49.5C22.2,225,0,247.2,0,274.5v476C0,777.8,22.2,800,49.5,800h701c27.3,0,49.5-22.2,49.5-49.5v-476   C800,247.2,777.8,225,750.5,225z M725,725H75V300h152.6c7.3,18.2,25.1,31,45.9,31h253c20.8,0,38.6-12.8,45.9-31H725V725z M299,150   h202v106H299V150z"/><path class="st1" d="M383.6,428h-13.5c-6.6,0-12,5.4-12,12v58h-53.5v-58c0-6.6-5.4-12-12-12h-13.5c-6.6,0-12,5.4-12,12v155   c0,6.6,5.4,12,12,12h13.5c6.6,0,12-5.4,12-12v-60h53.5v60c0,6.6,5.4,12,12,12h13.5c6.6,0,12-5.4,12-12V440   C395.6,433.4,390.2,428,383.6,428z"/><path class="st1" d="M520.9,427h-67c-0.4,0-0.8,0-1.1,0.1c-0.4,0-0.7-0.1-1.1-0.1h-13.5c-6.6,0-12,5.4-12,12v155   c0,6.6,5.4,12,12,12h13.5c6.6,0,12-5.4,12-12v-59h57.3c6.6,0,12-5.4,12-12v-6v-7v-58v-2v-11C532.9,432.4,527.5,427,520.9,427z    M495.9,498h-32.3v-34h32.3V498z"/></g><path d="M-1719,1545h-50c13.8,0,25-11.2,25-25v-25c0-13.8-11.2-25-25-25h-22.3h-117.9h-301.5h-117.9h-10.3c-13.8,0-25,11.2-25,25v25  c0,13.8,11.2,25,25,25h-62c-13.8,0-25,11.2-25,25v25c0,13.8,11.2,25,25,25h682c13.8,0,25-11.2,25-25v-25  C-1694,1556.2-1705.2,1545-1719,1545z"/><circle class="st2" cx="-2060" cy="1194" r="335.5"/></svg>