<svg width="135" height="135" xmlns="http://www.w3.org/2000/svg">

 <g>
  <title>background</title>
  <rect fill="none" id="canvas_background" height="402" width="582" y="-1" x="-1"/>
 </g>
 <g>
  <title>Layer 1</title>
  <circle fill="#ff1a1a" id="svg_3" r="61.667" cy="67.499" cx="67.5" class="st141"/>
  <ellipse fill="#d60909" id="svg_5" ry="47.232" rx="61.667" cy="67.499" cx="67.5" class="st226"/>
  <path fill="#ffffff" id="svg_7" d="m5.833,67.499c0,34.061 27.609,61.668 61.667,61.668s61.667,-27.607 61.667,-61.668l-123.334,0z" class="st188"/>
  <path fill="#d8e5ea" id="svg_9" d="m67.5,114.731c34.058,0 61.667,-21.148 61.667,-47.232l-123.334,0c0,26.084 27.609,47.232 61.667,47.232z" class="st232"/>
  <path fill="#33363a" id="svg_11" d="m67.5,130.667c-34.831,0 -63.167,-28.337 -63.167,-63.168c0,-34.83 28.336,-63.166 63.167,-63.166s63.167,28.336 63.167,63.166c0,34.831 -28.336,63.168 -63.167,63.168zm0,-123.334c-33.176,0 -60.167,26.99 -60.167,60.166c0,33.177 26.991,60.168 60.167,60.168s60.167,-26.991 60.167,-60.168c0,-33.176 -26.991,-60.166 -60.167,-60.166z" class="st205"/>
  <path fill="#33363a" id="svg_13" d="m129.167,68.999l-123.334,0c-0.829,0 -1.5,-0.671 -1.5,-1.5s0.671,-1.5 1.5,-1.5l123.334,0c0.829,0 1.5,0.671 1.5,1.5s-0.671,1.5 -1.5,1.5z" class="st205"/>
  <circle fill="#a7bbc1" id="svg_16" r="16.764" cy="73.201" cx="67.5" class="st247"/>
  <circle fill="#ffffff" id="svg_18" r="16.764" cy="67.5" cx="67.5" class="st188"/>
  <path fill="#d8e5ea" id="svg_20" d="m55.646,79.354c-6.547,-6.547 -6.546,-17.16 0,-23.709c6.547,-6.546 17.161,-6.546 23.707,0" class="st232"/>
  <path fill="#33363a" id="svg_22" d="m67.5,85.765c-4.878,0 -9.465,-1.9 -12.915,-5.35c-7.12,-7.12 -7.12,-18.707 0,-25.83c3.45,-3.449 8.037,-5.349 12.915,-5.349c4.878,0 9.464,1.899 12.914,5.349c3.45,3.451 5.351,8.038 5.351,12.916c0,4.878 -1.9,9.464 -5.351,12.914c-3.449,3.45 -8.035,5.35 -12.914,5.35zm0,-33.529c-4.077,0 -7.91,1.587 -10.793,4.47c-5.95,5.953 -5.95,15.637 0,21.588c2.883,2.883 6.716,4.471 10.793,4.471c4.077,0 7.91,-1.588 10.792,-4.471c2.883,-2.883 4.472,-6.716 4.472,-10.793c0,-4.077 -1.588,-7.911 -4.472,-10.795c-2.882,-2.882 -6.714,-4.47 -10.792,-4.47z" class="st205"/>
  <path fill="#ffffff" id="svg_25" d="m73.204,73.203c-3.149,3.146 -8.257,3.146 -11.404,0c-3.149,-3.15 -3.148,-8.255 0,-11.403c3.148,-3.15 8.255,-3.148 11.403,0s3.149,8.253 0.001,11.403z" class="st188"/>
  <path fill="#d8e5ea" id="svg_27" d="m61.8,61.8c3.148,-3.15 8.255,-3.148 11.403,0s3.148,8.253 0.001,11.403" class="st232"/>
 </g>
</svg>