<svg width="135" height="135" xmlns="http://www.w3.org/2000/svg">

 <g>
  <title>background</title>
  <rect fill="none" id="canvas_background" height="402" width="582" y="-1" x="-1"/>
 </g>
 <g>
  <title>Layer 1</title>
  <path fill="#0000ff" id="svg_3" d="m110.351,123.099l-19.755,-41.375l0,-71.935c0,-2.708 -2.196,-4.905 -4.905,-4.905l-36.381,0c-2.709,0 -4.905,2.197 -4.905,4.905l0,71.935l-19.755,41.375c-0.726,1.518 -0.621,3.305 0.277,4.729s2.465,2.288 4.149,2.288l76.848,0c1.685,0 3.251,-0.863 4.148,-2.288c0.9,-1.425 1.004,-3.212 0.279,-4.729z" class="st165"/>
  <path fill="#0000ff" id="svg_5" d="m95.19,123.099l-12.766,-41.375l0,-71.935c0,-2.708 -1.419,-4.905 -3.169,-4.905l-23.51,0c-1.751,0 -3.17,2.197 -3.17,4.905l0,71.935l-12.767,41.375c-0.469,1.518 -0.401,3.305 0.179,4.729c0.581,1.425 1.593,2.288 2.682,2.288l49.661,0c1.089,0 2.101,-0.863 2.682,-2.288s-95.012,-127.828 0.178,-4.729z" class="st103"/>
  <path fill="#d7f0ff" id="svg_7" d="m90.596,9.789c0,-2.708 -2.196,-4.905 -4.905,-4.905l-36.381,0c-2.709,0 -4.905,2.197 -4.905,4.905l0,27.592l15.245,0l0,19.621c0,2.708 2.196,4.905 4.905,4.905l5.889,0c2.709,0 4.905,-2.197 4.905,-4.905l0,-19.621l15.246,0l0,-27.592l0.001,0z" class="st228"/>
  <path fill="#b5daf4" id="svg_9" d="m52.575,9.789l0,27.592l7.075,0l0,19.621c0,2.708 2.196,4.905 4.905,4.905l5.889,0c2.709,0 4.905,-2.197 4.905,-4.905l0,-19.621l7.074,0l0,-27.592c0,-2.708 -1.419,-4.905 -3.169,-4.905l-23.51,0c-1.75,0 -3.169,2.197 -3.169,4.905z" class="st57"/>
  <path fill="#33363a" id="svg_11" d="m70.444,63.407l-5.889,0c-3.532,0 -6.405,-2.874 -6.405,-6.405l0,-18.121l-13.746,0c-0.828,0 -1.5,-0.671 -1.5,-1.5l0,-27.592c0,-3.532 2.873,-6.405 6.405,-6.405l36.381,0c3.532,0 6.405,2.874 6.405,6.405l0,27.592c0,0.829 -0.672,1.5 -1.5,1.5l-13.745,0l0,18.121c0,3.532 -2.873,6.405 -6.406,6.405zm-24.54,-27.526l13.746,0c0.828,0 1.5,0.671 1.5,1.5l0,19.621c0,1.877 1.527,3.405 3.405,3.405l5.889,0c1.878,0 3.405,-1.528 3.405,-3.405l0,-19.621c0,-0.829 0.672,-1.5 1.5,-1.5l13.746,0l0,-26.092c0,-1.877 -1.527,-3.405 -3.405,-3.405l-36.38,0c-1.878,0 -3.405,1.528 -3.405,3.405l0,26.092l-0.001,0z" class="st205"/>
  <path fill="#33363a" id="svg_13" d="m105.924,131.616l-76.848,0c-2.213,0 -4.238,-1.117 -5.418,-2.988c-1.181,-1.873 -1.316,-4.182 -0.362,-6.177l19.608,-41.068l0,-71.594c0,-3.532 2.873,-6.405 6.405,-6.405l36.381,0c3.532,0 6.405,2.874 6.405,6.405l0,71.595l19.608,41.068c0.954,1.996 0.818,4.305 -0.363,6.177c-1.177,1.87 -3.202,2.987 -5.416,2.987zm-56.614,-125.232c-1.878,0 -3.405,1.528 -3.405,3.405l0,71.935c0,0.224 -0.05,0.444 -0.146,0.646l-19.755,41.375c-0.507,1.061 -0.435,2.288 0.192,3.283c0.627,0.995 1.704,1.588 2.881,1.588l76.848,0c1.177,0 2.253,-0.593 2.879,-1.587c0.629,-0.996 0.701,-2.223 0.194,-3.283l-19.756,-41.376c-0.097,-0.202 -0.146,-0.423 -0.146,-0.646l0,-71.935c0,-1.877 -1.527,-3.405 -3.405,-3.405l-36.381,0z" class="st205"/>
  <circle fill="#4444ff" id="svg_15" r="2.861" cy="107.485" cx="65.865" class="st165"/>
  <circle fill="#4444ff" id="svg_17" r="3.985" cy="98.39" cx="76.595" class="st165"/>
  <circle fill="#4444ff" id="svg_19" r="1.481" cy="99.872" cx="54.674" class="st165"/>
  <circle fill="#4444ff" id="svg_21" r="3.27" cy="120.362" cx="57.944" class="st165"/>
  <circle fill="#4444ff" id="svg_23" r="1.839" cy="120.158" cx="83.646" class="st165"/>
  <path fill="#87b8d6" id="svg_26" d="m74.091,17.83c3.643,3.646 3.643,9.546 0,13.188c-6.233,6.234 -6.948,6.234 -13.184,0c-3.641,-3.643 -3.641,-9.543 0,-13.188c3.642,-3.64 9.544,-3.64 13.184,0z" class="st60"/>
  <path fill="#ffffff" id="svg_28" d="m74.091,14.662c3.643,3.641 3.643,9.544 0,13.185c-3.64,3.638 -9.542,3.638 -13.184,0c-3.641,-3.641 -3.641,-9.544 0,-13.185c3.642,-3.641 9.544,-3.641 13.184,0z" class="st188"/>
  <path fill="#d8e5ea" id="svg_30" d="m60.907,27.847c-3.641,-3.641 -3.641,-9.544 0,-13.185c3.642,-3.641 9.544,-3.641 13.184,0" class="st232"/>
  <path fill="#33363a" id="svg_32" d="m67.5,32.075c-2.891,0 -5.608,-1.125 -7.653,-3.167c-2.044,-2.044 -3.17,-4.762 -3.17,-7.653s1.126,-5.609 3.17,-7.653c2.045,-2.044 4.763,-3.17 7.653,-3.17s5.608,1.126 7.651,3.17c2.045,2.044 3.172,4.762 3.172,7.653s-1.127,5.609 -3.172,7.653c-2.044,2.042 -4.76,3.167 -7.651,3.167zm0,-18.643c-2.09,0 -4.055,0.813 -5.532,2.292c-1.478,1.477 -2.291,3.441 -2.291,5.531s0.813,4.054 2.291,5.532c1.478,1.476 3.442,2.289 5.532,2.289c2.089,0 4.054,-0.813 5.53,-2.29c1.479,-1.478 2.293,-3.442 2.293,-5.531s-0.814,-4.054 -2.293,-5.531c-1.477,-1.479 -3.441,-2.292 -5.53,-2.292z" class="st205"/>
  <path fill="#33363a" id="svg_34" d="m67.5,24.141c-1.593,0 -2.889,-1.295 -2.889,-2.888c0,-1.592 1.296,-2.887 2.889,-2.887c1.592,0 2.888,1.295 2.888,2.887c0,1.592 -1.296,2.888 -2.888,2.888z" class="st205"/>
 </g>
</svg>