<svg width="100.00000000000001" height="100.00000000000001" xmlns="http://www.w3.org/2000/svg">

 <g>
  <title>background</title>
  <rect fill="none" id="canvas_background" height="402" width="582" y="-1" x="-1"/>
 </g>
 <g>
  <title>Layer 1</title>
  <path fill="#ffffff" id="svg_3" d="m40.3,47.6c1.1,-4.4 5,-7.6 9.7,-7.6c4.7,0 8.6,3.2 9.7,7.6c18.5,0.3 34.8,1.4 35.3,3.5c0,-0.4 0,-0.7 0,-1.1c0,-24.9 -20.1,-45 -45,-45s-45,20.1 -45,45c0,0.4 0,0.7 0,1.1c0.5,-2 16.8,-3.2 35.3,-3.5z"/>
  <path fill="#ffffff" id="svg_4" d="m50.182736,60c-4.6,0 -8.5,-3.2 -9.7,-7.4c-17.2,0.3 -32.5,1.3 -35,3.1c2.9,22.1 21.8,39.3 44.7,39.3c22.9,0 41.8,-17.1 44.6,-39.3c-2.5,-1.8 -17.7,-2.8 -35,-3.1c-1.1,4.3 -5,7.4 -9.6,7.4z"/>
  <circle fill="#ffffff" id="svg_5" r="7.5" cy="50" cx="50"/>
 </g>
</svg>